Coordinates
version=1
nRows=30
nColumns=21
inDegrees=yes

Units are S.I. units (second, meters, Newtons, ...)
If the header above contains a line with 'inDegrees', this indicates whether rotational values are in degrees (yes) or radians (no).

endheader
time	sternoclavicular_r2	sternoclavicular_r3	unrotscap_r3	unrotscap_r2	acromioclavicular_r2	acromioclavicular_r3	acromioclavicular_r1	unrothum_r1	unrothum_r3	unrothum_r2	elv_angle	shoulder_elev	shoulder1_r2	shoulder_rot	elbow_flexion	pro_sup	deviation	flexion	wrist_hand_r1	wrist_hand_r3
      3.01507538	    -16.99340309	      7.19760350	     -7.19760350	     16.99340309	     -3.44081845	     27.80748441	     12.49927287	    -12.49927287	    -27.80748441	      3.44081845	    129.99720405	     70.22051655	   -129.99720405	     19.63713108	      0.01390945	      0.00000000	      0.00000000	     -0.00000000	     -0.00000000	      0.00000000
      3.03517588	    -17.04304821	      7.21863083	     -7.21863083	     17.04304821	     -3.45087058	     27.88872217	     12.53578868	    -12.53578868	    -27.88872217	      3.45087058	    129.99725090	     70.42566121	   -129.99725090	     19.63849167	      0.01369816	      0.00000000	      0.00000000	     -0.00000000	     -0.00000000	      0.00000000
      3.05527638	    -17.09144231	      7.23912829	     -7.23912829	     17.09144231	     -3.46066940	     27.96791278	     12.57138432	    -12.57138432	    -27.96791278	      3.46066940	    129.99729512	     70.62563637	   -129.99729512	     19.63981107	      0.01349820	      0.00000000	      0.00000000	     -0.00000000	     -0.00000000	      0.00000000
      3.07537688	    -17.13856768	      7.25908837	     -7.25908837	     17.13856768	     -3.47021133	     28.04502730	     12.60604676	    -12.60604676	    -28.04502730	      3.47021133	    129.99733687	     70.82036886	   -129.99733687	     19.64110114	      0.01330899	      0.00000000	      0.00000000	     -0.00000000	     -0.00000000	      0.00000000
      3.09547739	    -17.18440937	      7.27850475	     -7.27850475	     17.18440937	     -3.47949334	     28.12004123	     12.63976501	    -12.63976501	    -28.12004123	      3.47949334	    129.99737629	     71.00979691	   -129.99737629	     19.64236434	      0.01312993	      0.00000000	      0.00000000	     -0.00000000	     -0.00000000	      0.00000000
      3.11557789	    -17.22895453	      7.29737198	     -7.29737198	     17.22895453	     -3.48851283	     28.19293358	     12.67252961	    -12.67252961	    -28.19293358	      3.48851283	    129.99741353	     71.19386742	   -129.99741353	     19.64359831	      0.01296046	      0.00000000	      0.00000000	     -0.00000000	     -0.00000000	      0.00000000
      3.13567839	    -17.27219205	      7.31568535	     -7.31568535	     17.27219205	     -3.49726755	     28.26368613	     12.70433240	    -12.70433240	    -28.26368613	      3.49726755	    129.99744870	     71.37253446	   -129.99744870	     19.64479924	      0.01280006	      0.00000000	      0.00000000	     -0.00000000	     -0.00000000	      0.00000000
      3.15577889	    -17.31411172	      7.33344054	     -7.33344054	     17.31411172	     -3.50575543	     28.33228219	     12.73516586	    -12.73516586	    -28.33228219	      3.50575543	    129.99748192	     71.54575584	   -129.99748192	     19.64596874	      0.01264824	      0.00000000	      0.00000000	     -0.00000000	     -0.00000000	      0.00000000
      3.17587940	    -17.35470673	      7.35063468	     -7.35063468	     17.35470673	     -3.51397509	     28.39871063	     12.76502498	    -12.76502498	    -28.39871063	      3.51397509	    129.99751329	     71.71350346	   -129.99751329	     19.64709348	      0.01250453	      0.00000000	      0.00000000	     -0.00000000	     -0.00000000	      0.00000000
      3.19597990	    -17.39397076	      7.36726506	     -7.36726506	     17.39397076	     -3.52192526	     28.46296107	     12.79390511	    -12.79390511	    -28.46296107	      3.52192526	    129.99754292	     71.87575112	   -129.99754292	     19.64816988	      0.01236850	      0.00000000	      0.00000000	     -0.00000000	     -0.00000000	      0.00000000
      3.21608040	    -17.43189876	      7.38332957	     -7.38332957	     17.43189876	     -3.52960491	     28.52502529	     12.82180255	    -12.82180255	    -28.52502529	      3.52960491	    129.99757089	     72.03247805	   -129.99757089	     19.64919654	      0.01223977	      0.00000000	      0.00000000	     -0.00000000	     -0.00000000	      0.00000000
      3.23618090	    -17.46848681	      7.39882654	     -7.39882654	     17.46848681	     -3.53701324	     28.58489686	     12.84871441	    -12.84871441	    -28.58489686	      3.53701324	    129.99759729	     72.18366799	   -129.99759729	     19.65017546	      0.01211799	      0.00000000	      0.00000000	     -0.00000000	     -0.00000000	      0.00000000
      3.25628141	    -17.50373180	      7.41375466	     -7.41375466	     17.50373180	     -3.54414964	     28.64257069	     12.87463840	    -12.87463840	    -28.64257069	      3.54414964	    129.99762220	     72.32930815	   -129.99762220	     19.65111307	      0.01200287	      0.00000000	      0.00000000	     -0.00000000	     -0.00000000	      0.00000000
      3.27638191	    -17.53763130	      7.42811289	     -7.42811289	     17.53763130	     -3.55101359	     28.69804278	     12.89957272	    -12.89957272	    -28.69804278	      3.55101359	    129.99764568	     72.46938839	   -129.99764568	     19.65202062	      0.01189416	      0.00000000	      0.00000000	     -0.00000000	     -0.00000000	      0.00000000
      3.29648241	    -17.57018350	      7.44190046	     -7.44190046	     17.57018350	     -3.55760475	     28.75131021	     12.92351606	    -12.92351606	    -28.75131021	      3.55760475	    129.99766780	     72.60390131	   -129.99766780	     19.65291343	      0.01179163	      0.00000000	      0.00000000	     -0.00000000	     -0.00000000	      0.00000000
      3.31658291	    -17.60071817	      7.45483351	     -7.45483351	     17.60071817	     -3.56378740	     28.80127621	     12.94597544	    -12.94597544	    -28.80127621	      3.56378740	    129.99768839	     72.73007736	   -129.99768839	     19.65743851	      0.01171425	      0.00000000	      0.00000000	     -0.00000000	     -0.00000000	      0.00000000
      3.33668342	    -17.63055166	      7.46746957	     -7.46746957	     17.63055166	     -3.56982808	     28.85009482	     12.96791907	    -12.96791907	    -28.85009482	      3.56982808	    129.99770800	     72.85335596	   -129.99770800	     19.65819468	      0.01162323	      0.00000000	      0.00000000	     -0.00000000	     -0.00000000	      0.00000000
      3.35678392	    -17.65903363	      7.47953319	     -7.47953319	     17.65903363	     -3.57559510	     28.89670185	     12.98886861	    -12.98886861	    -28.89670185	      3.57559510	    129.99772642	     72.97104981	   -129.99772642	     19.65913549	      0.01153832	      0.00000000	      0.00000000	     -0.00000000	     -0.00000000	      0.00000000
      3.37688442	    -17.68618413	      7.49103286	     -7.49103286	     17.68618413	     -3.58109252	     28.94113009	     13.00883880	    -13.00883880	    -28.94113009	      3.58109252	    129.99774370	     73.08324169	   -129.99774370	     19.66010773	      0.01145877	      0.00000000	      0.00000000	     -0.00000000	     -0.00000000	      0.00000000
      3.39698492	    -17.71201982	      7.50197563	     -7.50197563	     17.71201982	     -3.58632372	     28.98340682	     13.02784190	    -13.02784190	    -28.98340682	      3.58632372	    129.99775992	     73.19000051	   -129.99775992	     19.66102426	      0.01138405	      0.00000000	      0.00000000	     -0.00000000	     -0.00000000	      0.00000000
      3.41708543	    -17.73654692	      7.51236416	     -7.51236416	     17.73654692	     -3.59128996	     29.02354222	     13.04588248	    -13.04588248	    -29.02354222	      3.59128996	    129.99777511	     73.29135195	   -129.99777511	     19.66194593	      0.01131418	      0.00000000	      0.00000000	     -0.00000000	     -0.00000000	      0.00000000
      3.43718593	    -17.75978036	      7.52220474	     -7.52220474	     17.75978036	     -3.59599426	     29.06156070	     13.06297153	    -13.06297153	    -29.06156070	      3.59599426	    129.99778931	     73.38735765	   -129.99778931	     19.66285291	      0.01124888	      0.00000000	      0.00000000	     -0.00000000	     -0.00000000	      0.00000000
      3.45728643	    -17.78173791	      7.53150493	     -7.53150493	     17.78173791	     -3.60044022	     29.09749137	     13.07912212	    -13.07912212	    -29.09749137	      3.60044022	    129.99780256	     73.47809115	   -129.99780256	     19.66371639	      0.01118790	      0.00000000	      0.00000000	     -0.00000000	     -0.00000000	      0.00000000
      3.47738693	    -17.80243918	      7.54027301	     -7.54027301	     17.80243918	     -3.60463180	     29.13136629	     13.09434866	    -13.09434866	    -29.13136629	      3.60463180	    129.99781492	     73.56363339	   -129.99781492	     19.66450765	      0.01113096	      0.00000000	      0.00000000	     -0.00000000	     -0.00000000	      0.00000000
      3.49748744	    -17.82190566	      7.54851809	     -7.54851809	     17.82190566	     -3.60857337	     29.16322064	     13.10866697	    -13.10866697	    -29.16322064	      3.60857337	    129.99782642	     73.64407320	   -129.99782642	     19.66520040	      0.01107781	      0.00000000	      0.00000000	     -0.00000000	     -0.00000000	      0.00000000
      3.51758794	    -17.84016163	      7.55625046	     -7.55625046	     17.84016163	     -3.61226983	     29.19309415	     13.12209491	    -13.12209491	    -29.19309415	      3.61226983	    129.99783709	     73.71951093	   -129.99783709	     19.66576376	      0.01102820	      0.00000000	      0.00000000	     -0.00000000	     -0.00000000	      0.00000000
      3.53768844	    -17.85723529	      7.56348206	     -7.56348206	     17.85723529	     -3.61572690	     29.22103298	     13.13465322	    -13.13465322	    -29.22103298	      3.61572690	    129.99784697	     73.79006310	   -129.99784697	     19.66615596	      0.01098184	      0.00000000	      0.00000000	     -0.00000000	     -0.00000000	      0.00000000
      3.55778894	    -17.87316157	      7.57022767	     -7.57022767	     17.87316157	     -3.61895165	     29.24709424	     13.14636757	    -13.14636757	    -29.24709424	      3.61895165	    129.99785610	     73.85587399	   -129.99785610	     19.66630919	      0.01093837	      0.00000000	      0.00000000	     -0.00000000	     -0.00000000	      0.00000000
      3.57788945	    -17.88798970	      7.57650817	     -7.57650817	     17.88798970	     -3.62195404	     29.27135854	     13.15727421	    -13.15727421	    -29.27135854	      3.62195404	    129.99786452	     73.91714713	   -129.99786452	     19.66609199	      0.01089722	      0.00000000	      0.00000000	     -0.00000000	     -0.00000000	      0.00000000
      3.59798995	    -17.90181021	      7.58236188	     -7.58236188	     17.90181021	     -3.62475242	     29.29397400	     13.16743970	    -13.16743970	    -29.29397400	      3.62475242	    129.99787227	     73.97425655	   -129.99787227	     19.66519086	      0.01085721	      0.00000000	      0.00000000	     -0.00000000	     -0.00000000	      0.00000000
